# xmcd CD database file
#
# Track frame offsets:
#	150
#	11855
#	26593
#	47938
#	71193
#	89750
#	107170
#	124545
#	137807
#	149572
#	164284
#	181611
#
# Disc length: 2597 seconds
#
# Revision: 1
# Processed by: cddbd v1.5.2PL0 Copyright (c) Steve Scherf et al.
# Submitted via: CDex 1.51
#
DISCID=b00a230c
DTITLE=Bobby Womack - It's All Over Now
DYEAR=1900
DGENRE=
TTITLE0=What is this?
TTITLE1=How I Miss you baby
TTITLE2=Communication
TTITLE3=That's the way I feel about Cha
TTITLE4=I can understand it
TTITLE5=Harry Hippie
TTITLE6=Across 110th Street
TTITLE7=Nobody wants you when you're down an out
TTITLE8=Lookin' for a love
TTITLE9=I don't know (what the world is coming on)
TTITLE10=Check it out
TTITLE11=It's all over now
EXTD=
EXTT0=
EXTT1=
EXTT2=
EXTT3=
EXTT4=
EXTT5=
EXTT6=
EXTT7=
EXTT8=
EXTT9=
EXTT10=
EXTT11=
PLAYORDER=
